<?xml version="1.0" encoding="UTF-8"?>
<!DOCTYPE svg PUBLIC "-//W3C//DTD SVG 1.1//EN" "http://www.w3.org/Graphics/SVG/1.1/DTD/svg11.dtd">
<!-- Creator: CorelDRAW X7 -->
<svg xmlns="http://www.w3.org/2000/svg" xml:space="preserve" width="8.4666mm" height="8.4666mm" version="1.1" style="shape-rendering:geometricPrecision; text-rendering:geometricPrecision; image-rendering:optimizeQuality; fill-rule:evenodd; clip-rule:evenodd"
viewBox="0 0 847 847"
 xmlns:xlink="http://www.w3.org/1999/xlink">
 <defs>
  <style type="text/css">
   <![CDATA[
    .fil0 {fill:#FEFEFE}
    .fil1 {fill:#1C1300;fill-rule:nonzero}
    .fil2 {fill:#704232;fill-rule:nonzero}
   ]]>
  </style>
 </defs>
 <g id="Layer_x0020_1">
  <metadata id="CorelCorpID_0Corel-Layer"/>
  <path class="fil0" d="M840 424c0,-230 -187,-417 -417,-417 -230,0 -417,187 -417,417 0,231 187,417 417,417 230,0 417,-186 417,-417z"/>
  <path class="fil1" d="M286 301c-1,0 -3,0 -3,-1 -1,-1 -2,-2 -2,-3l0 -91c0,-3 1,-6 3,-8 2,-2 5,-4 8,-4l267 -1c3,0 5,1 8,3 2,2 3,5 3,8l0 91c0,3 -1,4 -4,4l-280 2c0,0 0,0 0,0zm273 -100l0 0c0,0 0,0 0,0l-267 2c-1,0 -1,0 -2,1 0,0 -1,1 -1,2l1 87 272 -2 -1 -87c0,-1 0,-1 0,-2 -1,0 -2,-1 -2,-1z"/>
  <path class="fil2" d="M286 310c-2,0 -4,0 -5,-1l0 0c-2,-1 -3,-2 -4,-3l0 0c-2,-1 -3,-2 -3,-4l0 0c-1,-2 -1,-3 -1,-5l0 0 -1 -91c0,-3 1,-5 2,-8 1,-2 2,-4 4,-6l0 0c2,-2 4,-4 6,-5l0 0c3,-1 5,-1 8,-1l267 -2 0 0c2,0 5,1 7,2l0 0c3,1 5,2 7,4l0 0c2,2 3,4 4,6l0 0c1,3 1,5 2,8l0 0 0 91 0 0c0,4 -1,7 -4,9l0 0c-2,3 -5,4 -9,4l-280 2 0 0 0 0zm267 -100l-255 2 0 72 255 -2 0 -72z"/>
  <path class="fil1" d="M425 695c-59,0 -115,-23 -158,-65 -43,-43 -66,-99 -67,-159l0 0c0,-69 30,-135 83,-180 1,-1 3,-2 4,-1 2,1 2,2 3,3l276 -2 16 0c1,-1 2,-1 2,-1 2,0 3,0 4,1 4,3 8,7 12,11 45,44 70,103 70,166 1,60 -22,117 -65,160 -42,42 -98,66 -159,67l-21 0zm-141 -394l0 0c-48,43 -76,105 -75,170l0 0c0,58 23,112 64,153 41,40 95,62 152,62l21 0c58,0 113,-23 153,-64 41,-41 63,-96 63,-154 -1,-60 -24,-117 -68,-160 -3,-3 -6,-6 -9,-9 0,0 0,0 -1,0l-18 0 -280 2c-1,0 -1,0 -2,0z"/>
  <path class="fil2" d="M425 703c-31,0 -61,-6 -89,-17 -27,-11 -53,-28 -75,-50 -22,-22 -40,-48 -51,-76 -12,-28 -18,-58 -19,-89 0,-36 8,-71 23,-103 14,-32 36,-61 63,-84l0 0c2,-2 4,-3 7,-3l0 0c2,0 5,0 7,1 1,1 2,1 3,2l272 -2 14 0c1,0 2,-1 3,-1l0 0c2,0 4,0 5,0l0 0c2,1 4,2 5,3l0 0c3,2 5,4 7,6l0 0c2,2 4,4 6,6 24,23 42,50 54,79 12,29 19,60 19,93 0,31 -6,62 -17,90 -12,28 -29,54 -51,76 -21,22 -47,39 -75,51 -28,12 -58,18 -90,18l-21 0 0 0zm-138 -393c-22,20 -39,45 -51,71l0 0c-12,28 -19,59 -19,90 0,28 6,54 17,79 10,25 25,48 45,68 20,19 43,34 67,44 25,10 52,16 79,16l0 0 21 -1c28,0 55,-5 80,-16 25,-10 48,-26 67,-45 20,-20 35,-43 45,-68 10,-25 15,-52 15,-80 0,-29 -6,-57 -17,-83 -11,-26 -27,-50 -48,-71l0 0c-1,-1 -3,-3 -4,-4l0 0 -2 -2 -16 0 0 0 -279 2z"/>
  <path class="fil1" d="M566 299c-3,0 -5,-1 -5,-4l0 -78c0,-3 2,-5 4,-5l57 0c0,0 0,0 0,0 3,0 6,2 8,5 2,2 2,6 0,9l-42 71c-1,1 -2,2 -4,2l-18 0zm3 -78l0 0 1 70 12 0 41 -70c0,0 0,0 0,0 0,-1 -1,-1 -1,-1l-53 1z"/>
  <path class="fil2" d="M566 308c-4,0 -7,-1 -9,-4 -3,-2 -4,-5 -4,-9l-1 -78c0,-4 2,-7 4,-9l0 0c2,-3 5,-4 9,-4l57 -1 0 0 0 0c3,0 6,1 9,3 3,1 5,3 7,6l0 0c1,3 2,6 2,9l0 0c0,3 -1,6 -3,9l-41 72c-2,2 -3,3 -5,4l0 0c-2,1 -4,2 -7,2l-18 0 0 0zm12 -79l0 51 30 -51 -30 0z"/>
  <path class="fil1" d="M425 693c-123,0 -224,-100 -224,-224 -1,-10 0,-20 1,-30 1,-2 1,-3 3,-4 1,0 2,0 3,0l2 1c38,18 82,18 120,0l26 -12c54,-26 118,-25 171,3l18 9c32,17 70,18 103,3l14 -6c1,-1 2,-1 3,0 2,0 2,2 3,3 1,10 2,21 2,30 0,60 -23,117 -65,160 -42,42 -98,66 -158,66l-20 1c-1,0 -1,0 -2,0zm-216 -224l0 0c1,119 98,215 216,215 1,0 1,0 1,0l21 0c57,0 111,-23 152,-64 41,-41 63,-96 62,-154 0,-7 0,-15 -1,-23l-9 3c-35,16 -76,15 -110,-3l-18 -9c-51,-26 -112,-27 -164,-3l-26 13c-39,18 -84,19 -123,1 -1,9 -1,17 -1,24l-4 0 4 0z"/>
  <g>
   <path class="fil2" d="M425 701c-64,0 -122,-26 -164,-68 -42,-42 -69,-100 -69,-164 0,-5 0,-10 0,-15 1,-6 1,-11 2,-16l0 0c0,-2 1,-4 2,-6l0 0c1,-2 2,-3 4,-4l0 0c2,-1 4,-2 6,-2 2,0 4,1 6,1l2 1 0 0c18,9 37,13 56,13 19,0 38,-4 56,-13l26 -12c28,-13 59,-20 90,-19 31,0 61,8 89,22l18 9c15,8 31,12 47,12 17,1 33,-2 48,-9l14 -6 0 0c2,-1 4,-2 6,-2 2,1 4,1 6,2 1,1 3,2 4,4l0 0c1,2 2,4 2,6 1,5 2,11 2,16 0,5 1,10 1,15 0,32 -6,62 -18,90 -11,28 -28,54 -50,76 -22,22 -47,39 -75,51 -28,12 -58,18 -89,18l-20 0 -2 0 0 0zm-207 -232l0 0 0 0c0,-3 0,-7 0,-11l0 0c17,6 36,9 54,9 22,-1 44,-6 65,-15l26 -13c25,-11 52,-17 79,-16 26,0 53,7 77,19l18 9c18,10 38,15 59,15l0 0c19,1 38,-3 56,-11 1,4 1,8 1,12 0,27 -5,54 -16,79 -10,25 -25,48 -44,68 -20,19 -42,35 -67,45 -25,11 -52,16 -79,16l-21 0 0 0 -1 0c-57,0 -109,-23 -146,-60 -38,-37 -61,-89 -61,-146l0 0zm0 0l0 0 0 0z"/>
  </g>
  <path class="fil1" d="M189 353c-8,0 -16,-3 -21,-9 -5,-6 -7,-14 -6,-22 11,-65 60,-115 123,-124 1,0 2,0 3,1 1,1 1,2 1,3l1 50c0,2 -2,4 -4,4 -37,8 -65,40 -70,80 -1,10 -9,17 -19,17l-8 0c0,0 0,0 0,0zm0 -4l0 0 0 0 0 0zm92 -142l0 0c-57,11 -101,57 -110,117 -1,5 0,10 4,14 3,4 9,7 14,7l8 0c6,0 10,-5 11,-10 5,-42 34,-76 73,-86l0 -42z"/>
  <path class="fil2" d="M189 362c-5,0 -11,-1 -15,-3 -5,-3 -9,-6 -12,-10 -4,-4 -6,-8 -7,-13 -2,-5 -2,-10 -1,-15 5,-34 21,-65 44,-88 23,-23 52,-39 85,-44l0 0c2,0 4,0 6,1 1,0 3,1 5,2l0 0c1,2 2,3 3,5 1,1 1,3 1,5l0 0 0 50 0 0c0,3 -1,6 -2,8l0 0c-2,2 -5,4 -8,5 -16,3 -31,12 -42,25 -11,13 -19,29 -21,47 -1,7 -4,13 -9,18 -5,4 -12,7 -19,7l-8 0 0 0 0 0zm83 -144c-22,6 -42,18 -57,35 -19,19 -31,44 -36,72l0 0c0,1 0,3 1,4 0,1 1,3 1,4 1,1 2,2 4,2l0 0c1,1 2,1 4,1l0 0 8 0 0 0c1,0 1,0 1,-1 1,0 1,-1 1,-1l0 0c3,-23 12,-44 26,-60 13,-14 29,-26 48,-32l-1 -24z"/>
 </g>
</svg>
