<?xml version="1.0" encoding="UTF-8"?>
<!DOCTYPE svg PUBLIC "-//W3C//DTD SVG 1.1//EN" "http://www.w3.org/Graphics/SVG/1.1/DTD/svg11.dtd">
<!-- Creator: CorelDRAW X7 -->
<svg xmlns="http://www.w3.org/2000/svg" xml:space="preserve" width="63.474mm" height="44.01mm" version="1.1" style="shape-rendering:geometricPrecision; text-rendering:geometricPrecision; image-rendering:optimizeQuality; fill-rule:evenodd; clip-rule:evenodd"
viewBox="0 0 6347 4401"
 xmlns:xlink="http://www.w3.org/1999/xlink">
 <defs>
  <style type="text/css">
   <![CDATA[
    .fil1 {fill:#704232}
    .fil0 {fill:#F27C4A}
    .fil2 {fill:#F2B939;fill-rule:nonzero}
   ]]>
  </style>
 </defs>
 <g id="Layer_x0020_1">
  <metadata id="CorelCorpID_0Corel-Layer"/>
  <path class="fil0" d="M3857 2181l1176 -1c-9,-6 -26,-15 -36,-20l-110 -62c-98,-54 -198,-112 -297,-166l-110 -61c-50,-27 -22,-33 -112,19 -24,13 -47,27 -73,41 -24,13 -50,28 -73,41 -106,63 -222,125 -330,188 -11,7 -25,13 -35,21zm669 -299c120,65 242,135 361,202 25,13 49,27 73,40 24,13 48,28 72,40 -4,-11 -132,-231 -141,-246l-106 -185c-8,-13 -28,-52 -35,-60 -12,5 -27,15 -39,22l-257 146 72 41zm252 -226c4,13 135,236 142,248 24,42 47,83 71,124 12,21 24,41 35,62 9,16 26,48 36,61l0 -655c-10,3 -60,33 -72,40 -23,14 -47,28 -70,40l-106 61c-12,6 -24,14 -36,19zm297 -165l0 661 75 -124c24,-41 48,-83 72,-125 24,-42 47,-83 71,-125 17,-29 57,-96 71,-123 -12,-6 -25,-14 -37,-21l-252 -143zm13 -10c5,6 187,108 211,122l71 40c7,-6 29,-49 35,-60 11,-20 22,-40 34,-59 13,-22 194,-336 204,-358 -18,8 -255,144 -278,157 -46,27 -93,53 -139,79l-138 79zm-639 347c10,-4 28,-15 37,-21l111 -63c25,-13 49,-28 74,-42 13,-7 64,-34 72,-41 -10,-20 -25,-44 -37,-64l-257 -446 0 677zm467 -265l127 -72c2,-1 5,-3 8,-4 1,-1 4,-3 5,-3 2,-2 2,-2 3,-3 -11,-8 -24,-15 -36,-21 -152,-89 -310,-177 -464,-266l-71 -40 142 247c18,32 128,218 140,244 10,-3 132,-74 146,-82zm-364 -388c67,40 149,85 218,125l218 125c12,7 66,39 74,41l0 -329c0,-7 -4,-5 -13,-5 -6,0 -12,0 -19,0l-551 0c20,15 50,29 73,43zm838 496c-4,11 -11,21 -17,32l-271 471c10,-4 59,-34 74,-42 155,-87 316,-183 472,-272 6,-4 12,-8 18,-11 7,-4 13,-6 18,-12 -14,-4 -57,-32 -74,-41 -25,-13 -48,-27 -73,-42l-109 -62c-11,-6 -27,-17 -38,-21zm-315 -538l0 339 148 -83c135,-76 273,-158 408,-232 21,-11 25,-11 31,-25l-587 1zm257 1048c314,0 634,2 948,0 -22,-14 -49,-29 -73,-43l-218 -125c-30,-17 -287,-166 -291,-166l-435 250c-48,28 -97,55 -144,84l213 0zm-1115 -221l219 -125 -1 -683c0,3 -6,10 -9,15l-27 47c-33,62 -74,128 -110,192 -24,42 -49,83 -73,127 -24,43 -50,84 -74,127 -12,22 -25,42 -37,64 -35,64 -73,126 -110,191l-146 254c24,-12 49,-28 74,-41 97,-53 196,-114 294,-168zm204 -859c11,0 11,-7 24,-30 7,-12 13,-22 20,-33l198 -346c27,-45 54,-92 80,-138 26,-46 53,-90 79,-137 48,-89 108,-184 158,-276 13,-23 26,-46 40,-69 7,-12 12,-22 19,-34l20 -37c29,0 29,16 54,56 33,51 92,154 121,206l80 138c27,46 54,92 80,139l80 138c27,47 52,94 80,140 52,84 107,191 160,279l79 139c64,114 136,233 198,347 13,23 27,48 40,71 55,92 104,185 159,278 40,68 79,143 119,209l40 71c-56,2 -138,0 -197,0 -778,0 -1559,2 -2338,0l-26 0 160 -277c26,-46 52,-93 79,-138l80 -140c27,-46 54,-91 80,-138 53,-93 108,-185 160,-277l60 -104c10,-17 19,-26 14,-37zm1197 172c-14,25 -216,376 -220,387l75 42c60,34 164,98 218,125l1 -8c2,-221 -1,-452 -1,-673l-73 127zm86 -128l0 433 0 222c0,39 -6,32 24,48 63,36 124,72 187,107 108,61 217,126 326,187 13,8 34,22 47,26 -4,-9 -13,-23 -19,-33 -6,-10 -11,-21 -18,-32 -34,-63 -73,-127 -109,-192 -47,-85 -98,-169 -145,-255 -35,-63 -76,-131 -111,-193 -11,-21 -23,-43 -36,-64 -24,-41 -125,-224 -146,-254zm-1219 -44l577 0 0 -412c-7,2 -13,8 -19,13 -4,3 -5,3 -9,6 -1,1 -3,3 -4,3l-40 29c-13,9 -24,17 -37,26 -108,76 -218,157 -325,232 -14,10 -23,17 -37,27l-106 76zm22 -32l408 -292c24,-18 51,-35 74,-53 24,-18 49,-35 73,-52l0 -609c-5,5 -65,111 -75,129l-518 903c10,-4 28,-19 38,-26zm572 -1007l-4 610c0,6 3,5 9,9 45,31 96,70 141,101l114 81c12,9 25,17 37,26 13,11 24,18 37,27l245 176c8,5 9,9 21,9 -11,-22 -25,-43 -37,-66 -12,-21 -25,-43 -38,-65l-508 -881c-4,-5 -7,-11 -10,-15l-7 -12zm-4 630l0 409 573 -1 -358 -255c-56,-42 -124,-87 -178,-127 -11,-9 -25,-19 -37,-26z"/>
  <path class="fil1" d="M70 49l1177 0c-10,7 -26,15 -37,21l-110 62c-98,53 -198,112 -297,165l-110 62c-50,26 -22,32 -112,-19 -24,-14 -47,-28 -73,-42 -24,-13 -49,-27 -73,-41 -106,-63 -222,-125 -330,-188 -11,-6 -25,-13 -35,-20zm670 299c119,-65 241,-136 361,-202 24,-14 48,-27 72,-40 24,-14 48,-29 72,-40 -4,10 -132,230 -141,246l-106 184c-7,13 -27,52 -35,60 -12,-5 -27,-15 -39,-21l-256 -147 72 -40zm251 225c5,-12 135,-235 142,-248 24,-42 47,-82 71,-124 12,-20 24,-41 36,-61 9,-16 25,-49 35,-61l0 654c-10,-3 -60,-33 -72,-40 -23,-14 -47,-27 -70,-40l-106 -60c-12,-6 -24,-14 -36,-20zm297 166l0 -662 75 124c25,41 48,83 72,125 24,42 47,83 71,125 18,29 58,96 71,123 -11,6 -25,15 -36,21l-253 144zm13 10c6,-7 187,-108 211,-123l71 -40c7,7 29,49 35,60 12,21 23,40 34,60 13,22 194,335 204,357 -18,-8 -254,-143 -278,-157 -46,-26 -93,-52 -139,-79l-138 -78zm-639 -348c10,4 28,16 37,21l111 63c25,14 50,28 74,42 14,7 64,34 72,42 -10,20 -24,43 -36,64l-258 445 0 -677zm467 265l127 72c2,1 5,3 8,5 1,1 4,2 5,3 2,1 2,2 3,2 -11,8 -24,15 -36,22 -152,89 -310,176 -464,265l-71 40 142 -246c18,-32 128,-219 140,-245 10,3 132,74 146,82zm-364 388c67,-40 149,-85 218,-125l219 -125c11,-6 65,-38 73,-41l0 329c0,8 -4,6 -12,5 -7,0 -13,0 -20,0l-551 0c20,-14 50,-29 73,-43zm838 -496c-4,-11 -11,-21 -17,-32l-271 -470c11,3 60,33 74,41 155,88 316,183 472,273 6,3 12,7 18,10 7,4 13,6 18,12 -14,4 -57,32 -74,41 -25,14 -48,28 -73,42l-109 62c-10,7 -27,18 -38,21zm-315 539l1 -339 147 82c135,76 273,158 408,232 21,12 25,11 31,25l-587 0zm257 -1048c315,0 635,-2 948,0 -21,14 -48,29 -73,42l-218 125c-30,17 -287,166 -291,166l-435 -250c-48,-28 -97,-54 -144,-83l213 0zm-1115 220l219 125 -1 683c0,-3 -6,-10 -9,-15l-27 -47c-33,-61 -74,-128 -110,-191 -24,-42 -49,-84 -73,-127 -24,-43 -50,-84 -74,-128 -12,-21 -25,-42 -37,-64 -35,-63 -73,-126 -110,-191l-146 -254c24,12 49,28 74,42 97,53 197,113 294,167zm204 859c11,1 11,7 24,30 7,12 13,22 20,34l199 345c26,46 54,92 79,138 26,47 53,90 79,137 49,90 108,185 159,277 12,23 25,45 39,69 7,11 13,21 20,34l19 36c29,0 29,-16 54,-55 33,-51 92,-155 121,-207l80 -138c27,-46 54,-92 80,-139l80 -138c28,-46 52,-94 80,-140 52,-84 107,-191 160,-279l79 -138c64,-115 136,-234 198,-348 13,-23 27,-48 40,-70 55,-93 104,-186 159,-279 40,-67 79,-142 119,-209l40 -71c-56,-2 -138,0 -196,0 -779,0 -1560,-2 -2338,0l-27 0 160 278c27,46 52,92 79,138l80 139c27,47 54,91 80,138 53,93 109,185 160,277l60 104c10,18 19,27 14,37zm1197 -172c-14,-25 -216,-376 -220,-387l75 -42c60,-34 164,-97 218,-125l1 9c2,220 0,451 -1,672l-73 -127zm86 128l0 -433 0 -221c0,-40 -6,-33 24,-49 63,-35 124,-72 187,-107 108,-61 217,-126 326,-187 13,-7 34,-22 47,-26 -4,9 -13,24 -19,33 -6,11 -11,21 -17,32 -35,63 -74,127 -110,192 -47,85 -98,169 -145,255 -35,63 -76,131 -111,194 -11,21 -23,42 -36,63 -24,41 -125,224 -146,254zm-1219 44l577 1 0 411c-7,-2 -13,-8 -19,-12 -4,-3 -5,-4 -9,-7 -1,-1 -3,-2 -4,-3l-40 -28c-13,-10 -24,-17 -37,-27 -108,-76 -218,-157 -325,-232 -14,-9 -23,-17 -37,-26l-106 -77zm22 33l408 291c24,18 51,35 74,53 24,18 50,35 73,53l0 609c-5,-6 -64,-112 -75,-129l-518 -904c10,5 28,20 38,27zm572 1007l-4 -610c0,-6 4,-6 9,-10 45,-30 96,-70 141,-101l114 -81c12,-9 25,-17 37,-26 13,-10 24,-17 37,-27l245 -175c8,-6 9,-10 22,-10 -12,23 -26,44 -38,66 -12,22 -25,44 -37,66l-509 880c-4,6 -7,11 -10,16l-7 12zm-4 -631l0 -409 573 1 -358 255c-56,42 -124,87 -178,128 -11,8 -24,19 -37,25z"/>
  <path class="fil1" d="M2600 2213l1177 0c-9,7 -26,15 -37,21l-110 62c-98,53 -198,112 -296,165l-110 62c-50,27 -23,32 -112,-19 -24,-14 -48,-28 -73,-42 -25,-13 -50,-27 -74,-41 -106,-63 -221,-125 -329,-187 -12,-7 -26,-14 -36,-21zm670 299c119,-65 241,-136 361,-202 25,-14 48,-27 72,-40 24,-13 49,-29 72,-40 -3,10 -131,230 -140,246l-106 184c-8,13 -28,53 -36,60 -12,-5 -27,-15 -38,-21l-257 -147 72 -40zm251 225c5,-12 135,-235 142,-248 24,-42 47,-82 71,-123 12,-21 24,-42 36,-62 9,-16 25,-49 36,-61l0 654c-10,-3 -61,-33 -72,-40 -23,-13 -48,-27 -71,-40l-106 -60c-12,-6 -24,-14 -36,-20zm298 166l0 -662 74 124c25,41 49,84 72,125 24,42 48,83 72,125 17,29 57,96 70,123 -11,6 -25,15 -36,21l-252 144zm12 10c6,-7 187,-108 212,-123l70 -40c7,7 29,49 36,61 11,20 22,39 34,59 13,22 193,335 203,357 -18,-8 -254,-143 -278,-157 -46,-26 -92,-52 -138,-79l-139 -78zm-639 -348c10,4 28,16 38,21l111 63c24,14 49,29 74,42 13,7 64,34 72,42 -11,20 -25,43 -37,64l-258 445 0 -677zm467 265l127 72c2,2 6,3 9,5 1,1 3,2 4,3 2,1 2,2 3,3 -10,7 -24,14 -36,21 -152,89 -309,176 -463,265l-71 40 141 -246c18,-32 128,-219 141,-245 9,3 131,74 145,82zm-364 388c67,-40 149,-85 219,-124l218 -126c11,-6 66,-38 74,-41l0 329c0,8 -4,6 -13,5 -7,0 -13,0 -19,0l-552 0c20,-14 50,-29 73,-43zm839 -496c-5,-11 -12,-20 -18,-32l-271 -470c11,3 60,34 74,41 155,88 317,183 472,273 6,3 13,7 18,10 7,4 13,6 18,12 -13,4 -57,32 -73,41 -25,14 -49,28 -73,42l-110 62c-10,7 -26,18 -37,21zm-315 539l0 -339 147 82c135,76 274,158 408,232 21,12 25,11 31,25l-586 0zm256 -1048c315,0 635,-2 949,0 -22,14 -49,29 -73,42l-219 126c-29,16 -286,165 -291,165l-435 -249c-47,-29 -97,-55 -144,-84l213 0zm-1114 220l218 125 0 683c-1,-2 -6,-10 -9,-15l-27 -47c-34,-61 -75,-128 -111,-191 -24,-42 -49,-84 -73,-127 -24,-43 -49,-84 -73,-127 -12,-22 -25,-43 -37,-65 -35,-63 -74,-126 -110,-191l-146 -254c24,12 49,28 73,42 97,53 197,113 295,167zm204 859c11,1 11,7 24,30 6,12 12,22 19,34l199 345c27,46 54,92 79,138 26,47 54,90 79,137 49,90 108,185 159,277 13,23 26,45 39,69 7,12 13,21 20,34l19 36c30,0 29,-16 54,-55 33,-51 93,-155 122,-207l80 -138c27,-46 53,-92 80,-139l79 -138c28,-46 52,-93 80,-139 52,-85 107,-192 160,-280l79 -138c64,-114 136,-233 199,-347 12,-24 26,-49 40,-71 54,-93 104,-186 158,-278 41,-68 80,-143 120,-210l39 -71c-56,-2 -137,0 -196,0 -779,0 -1560,-2 -2338,0l-27 0 160 278c27,46 52,92 80,138l80 139c26,47 53,92 79,138 53,93 109,185 160,277l60 104c11,18 19,27 15,37zm1197 -172c-14,-25 -216,-376 -220,-387l74 -42c60,-34 165,-97 219,-124l0 8c2,221 0,451 0,672l-73 -127zm85 128l0 -433 0 -221c0,-40 -5,-32 24,-49 64,-35 124,-72 187,-107 109,-61 218,-126 326,-187 13,-7 35,-21 47,-26 -4,9 -12,24 -18,33 -7,11 -12,21 -18,32 -34,63 -73,127 -110,192 -47,85 -98,170 -145,256 -34,62 -76,130 -110,193 -12,21 -24,42 -36,63 -25,42 -126,224 -147,254zm-1219 44l578 1 0 411c-7,-2 -13,-8 -20,-12 -4,-3 -5,-4 -9,-6 -1,-2 -3,-3 -4,-4l-40 -28c-13,-10 -24,-17 -37,-27 -108,-76 -218,-157 -325,-232 -14,-9 -23,-17 -37,-26l-106 -77zm23 33l407 291c24,18 51,36 75,53 24,18 49,35 73,53l0 609c-6,-6 -65,-112 -75,-129l-519 -904c10,5 28,20 39,27zm571 1007l-3 -610c0,-6 3,-6 8,-10 45,-30 96,-70 141,-101l114 -81c12,-9 25,-17 37,-26 13,-10 25,-17 38,-27l245 -175c7,-6 9,-9 21,-10 -12,23 -25,44 -38,66 -11,22 -24,44 -37,66l-509 880c-3,6 -6,11 -9,16l-8 12zm-3 -631l0 -409 572 1 -357 256c-57,41 -124,86 -178,127 -11,8 -25,19 -37,25z"/>
  <path class="fil0" d="M715 3266l1177 -1c-10,-6 -26,-15 -37,-21l-110 -61c-98,-54 -198,-112 -296,-166l-110 -61c-50,-27 -23,-33 -112,19 -25,13 -48,27 -73,41 -25,13 -50,28 -74,41 -106,63 -221,125 -329,188 -12,6 -26,13 -36,21zm670 -300c119,66 241,136 361,202 25,14 48,28 72,41 24,13 48,28 72,40 -3,-11 -131,-231 -140,-246l-106 -185c-8,-13 -28,-52 -36,-60 -12,5 -27,15 -38,21l-257 147 72 40zm251 -225c5,12 135,236 142,248 24,42 47,82 71,124 12,20 24,41 36,62 9,16 25,48 35,60l1 -654c-11,3 -61,33 -73,40 -22,14 -47,27 -70,40l-106 60c-12,7 -24,15 -36,20zm297 -165l1 661 74 -124c25,-41 48,-83 72,-125 24,-42 47,-83 72,-125 17,-29 57,-96 70,-123 -11,-6 -25,-14 -36,-21l-253 -143zm13 -10c6,6 187,108 212,122l70 40c7,-6 29,-49 36,-60 11,-21 22,-40 34,-60 13,-21 193,-335 203,-357 -18,8 -254,144 -278,157 -46,27 -92,53 -138,79l-139 79zm-639 347c10,-4 28,-15 38,-21l111 -63c24,-13 49,-28 74,-42 13,-7 64,-34 72,-41 -11,-20 -25,-44 -37,-64l-258 -446 0 677zm467 -265l127 -72c2,-1 6,-3 9,-5 1,0 3,-2 4,-3 2,-1 2,-1 3,-2 -10,-8 -24,-15 -36,-21 -152,-90 -309,-177 -463,-266l-71 -40 141 247c18,31 128,218 140,244 10,-3 132,-74 146,-82zm-364 -388c67,40 149,85 219,125l218 125c11,7 66,39 74,41l0 -329c0,-7 -4,-5 -13,-5 -7,0 -13,0 -19,0l-552 0c20,15 50,29 73,43zm839 496c-5,11 -12,21 -18,32l-271 470c11,-3 60,-33 74,-41 155,-87 317,-183 472,-272 6,-4 13,-8 18,-11 7,-4 13,-6 18,-12 -13,-4 -57,-32 -73,-41 -25,-14 -49,-27 -73,-42l-110 -62c-10,-6 -27,-17 -37,-21zm-316 -538l1 339 147 -83c135,-76 274,-158 408,-232 21,-11 25,-11 31,-25l-587 1zm257 1048c315,0 635,2 949,0 -22,-15 -49,-29 -73,-43l-219 -125c-29,-17 -286,-166 -291,-166l-435 250c-47,28 -97,54 -144,84l213 0zm-1114 -221l218 -125 0 -683c-1,3 -6,10 -9,15l-27 47c-34,61 -75,128 -111,192 -24,42 -49,83 -73,127 -24,43 -49,84 -73,127 -12,22 -25,42 -37,64 -35,63 -74,126 -110,191l-146 254c24,-12 49,-28 73,-42 97,-52 197,-113 295,-167zm203 -859c12,0 12,-7 25,-30 6,-12 12,-22 19,-34l199 -345c27,-46 54,-92 79,-138 26,-46 54,-90 79,-137 49,-89 108,-184 159,-276 13,-24 26,-46 39,-69 7,-12 13,-22 20,-34l19 -37c29,0 29,16 54,56 33,50 93,154 122,206l80 138c27,46 53,92 80,139l79 138c28,47 52,94 80,140 52,84 107,191 160,279l79 139c64,114 136,233 199,347 12,23 26,48 40,70 54,93 104,186 158,279 41,68 80,143 120,209l39 71c-56,2 -137,0 -196,0 -779,0 -1560,2 -2338,0l-27 0 160 -277c27,-46 52,-93 79,-138l81 -140c26,-46 53,-91 79,-138 53,-93 109,-185 160,-277l60 -104c11,-17 19,-26 14,-37zm1198 172c-14,25 -216,376 -220,387l74 42c60,34 165,98 219,125l0 -8c2,-221 0,-452 0,-673l-73 127zm85 -128l0 433 0 222c0,39 -5,32 24,48 63,36 124,72 187,107 109,61 217,126 326,187 13,8 35,22 47,26 -4,-9 -12,-23 -18,-33 -7,-11 -12,-21 -18,-32 -35,-63 -73,-127 -110,-192 -47,-85 -98,-169 -145,-255 -35,-63 -76,-131 -110,-193 -12,-21 -24,-43 -36,-64 -25,-41 -126,-224 -147,-254zm-1219 -44l578 0 0 -412c-7,2 -13,8 -20,13 -4,3 -5,3 -9,6 -1,1 -3,2 -4,3l-40 29c-13,9 -24,17 -37,26 -108,76 -218,157 -325,232 -14,10 -23,17 -37,26l-106 77zm23 -33l407 -291c24,-18 51,-35 75,-53 23,-18 49,-35 73,-52l0 -609c-6,5 -65,111 -75,129l-519 903c10,-5 28,-19 39,-27zm571 -1006l-4 610c0,6 4,5 9,9 45,30 96,70 141,101l114 81c12,9 25,17 37,26 13,11 25,18 38,27l245 175c7,6 9,10 21,10 -12,-22 -25,-43 -38,-66 -11,-22 -24,-43 -37,-65l-509 -881c-3,-5 -6,-11 -9,-16l-8 -11zm-4 630l1 409 572 -1 -357 -255c-57,-42 -124,-87 -178,-127 -11,-9 -25,-19 -38,-26z"/>
  <g id="_335593320">
   <path class="fil2" d="M2923 92l-463 1025 327 666 464 37 0 25c-160,-13 -321,-24 -481,-37 -113,-230 -227,-460 -340,-690 158,-350 316,-699 474,-1049 116,-26 232,-52 348,-78l0 28 -329 73z"/>
   <polygon class="fil2" points="2445,1104 3189,1105 3043,955 3038,950 3039,943 3126,459 3088,410 3085,407 3085,402 3083,114 3083,103 3094,101 3196,77 3241,57 3252,82 3206,102 3205,103 3203,103 3110,125 3112,398 3151,448 3154,453 3153,458 3067,941 3231,1109 3253,1132 3221,1132 2445,1131 "/>
   <polygon class="fil2" points="3140,443 3250,442 3250,469 3140,469 "/>
   <polygon class="fil2" points="2925,75 2981,193 3110,199 3109,226 2972,219 2964,219 2960,212 2901,86 "/>
   <polygon class="fil2" points="2985,210 2703,1118 2935,1759 2910,1768 2676,1122 2675,1118 2676,1114 2960,202 "/>
   <polygon class="fil2" points="2784,1783 3246,1673 3252,1699 2790,1809 "/>
   <polygon class="fil2" points="2768,1788 3227,1111 3249,1126 2790,1803 "/>
   <polygon class="fil2" points="2456,1110 2933,1756 2912,1772 2434,1126 "/>
   <polygon class="fil2" points="2699,1109 3247,1679 3228,1698 2679,1127 "/>
   <path class="fil2" d="M3564 93l463 1025 -327 665 -464 38 0 23c6,-1 12,1 18,1 154,-13 309,-24 463,-36 113,-230 227,-461 340,-691 -158,-349 -316,-699 -474,-1048 -116,-26 -232,-52 -348,-78l0 28 329 73z"/>
   <polygon class="fil2" points="4042,1105 3298,1106 3444,955 3449,950 3448,944 3361,460 3399,411 3402,407 3402,403 3404,114 3404,104 3393,101 3291,78 3246,58 3236,82 3281,103 3282,103 3284,103 3377,125 3375,398 3337,448 3333,453 3334,459 3420,942 3256,1110 3234,1132 3266,1132 4042,1131 "/>
   <polygon class="fil2" points="3347,443 3237,443 3237,469 3347,470 "/>
   <polygon class="fil2" points="3562,75 3506,193 3377,200 3378,226 3515,220 3523,219 3527,212 3586,87 "/>
   <polygon class="fil2" points="3502,210 3784,1118 3552,1760 3577,1769 3811,1123 3812,1119 3811,1114 3527,202 "/>
   <polygon class="fil2" points="3703,1784 3242,1674 3235,1700 3697,1810 "/>
   <polygon class="fil2" points="3720,1788 3260,1111 3238,1126 3697,1803 "/>
   <polygon class="fil2" points="4032,1110 3554,1756 3575,1772 4053,1126 "/>
   <polygon class="fil2" points="3788,1109 3240,1680 3259,1698 3808,1128 "/>
   <polygon class="fil2" points="3258,1132 3267,1844 3240,1845 3232,1132 "/>
   <polygon class="fil2" points="3230,94 3229,1 3256,1 3256,93 "/>
  </g>
 </g>
</svg>
