<?xml version="1.0" encoding="UTF-8"?>
<!DOCTYPE svg PUBLIC "-//W3C//DTD SVG 1.1//EN" "http://www.w3.org/Graphics/SVG/1.1/DTD/svg11.dtd">
<!-- Creator: CorelDRAW X7 -->
<svg xmlns="http://www.w3.org/2000/svg" xml:space="preserve" width="8.4666mm" height="8.4666mm" version="1.1" style="shape-rendering:geometricPrecision; text-rendering:geometricPrecision; image-rendering:optimizeQuality; fill-rule:evenodd; clip-rule:evenodd"
viewBox="0 0 847 847"
 xmlns:xlink="http://www.w3.org/1999/xlink">
 <defs>
  <style type="text/css">
   <![CDATA[
    .fil1 {fill:#FEFEFE}
    .fil0 {fill:#704232}
   ]]>
  </style>
 </defs>
 <g id="Layer_x0020_1">
  <metadata id="CorelCorpID_0Corel-Layer"/>
  <path class="fil0" d="M397 314c14,35 -16,70 -28,93 -22,39 -5,75 25,100 14,12 4,21 -9,8 -76,-72 -18,-118 -3,-156 20,-49 -17,-51 -6,-62 8,-8 18,10 21,17zm-121 108c1,16 5,34 11,47 18,43 56,78 106,70 62,-10 96,-82 90,-145 -5,-64 -51,-127 -117,-116 -63,10 -94,82 -90,144z"/>
  <path class="fil0" d="M496 397c1,29 -3,49 -12,74 -8,23 -19,35 -33,52 22,1 54,-13 72,-24 45,-27 86,-89 66,-148 -6,-18 -17,-28 -28,-38 -26,-23 -67,-22 -104,-13 2,4 8,10 13,17 4,7 7,12 11,20 6,14 10,30 14,47 18,0 47,-10 55,-29 4,-10 -2,-19 12,-16 8,16 -9,35 -18,41 -13,10 -30,14 -48,17z"/>
  <path class="fil0" d="M395 549c-15,2 -28,1 -41,-2 1,52 2,104 3,157 0,9 3,17 9,24 6,7 14,10 23,10l85 0c9,0 17,-3 23,-9 6,-6 9,-14 9,-23 0,-10 -3,-17 -9,-24 -6,-6 -14,-9 -23,-9l-53 0 -1 -47 38 0c10,0 18,-3 24,-9 6,-6 9,-14 9,-24 0,-9 -3,-17 -9,-23 -6,-6 -14,-9 -24,-9l-39 0 -1 -19c-7,3 -15,5 -23,7z"/>
  <path class="fil0" d="M543 498l4 209c0,9 3,17 10,23 6,5 13,8 22,8 10,0 17,-3 24,-8 6,-6 9,-14 9,-23l-2 -117 77 129c3,5 7,10 12,14 5,3 11,5 17,5 10,0 17,-3 24,-9 6,-7 9,-15 9,-24l-4 -252c0,-10 -4,-18 -10,-23 -6,-6 -13,-9 -23,-9 -9,0 -16,3 -23,9 -6,6 -9,13 -9,23l3 123c-14,-24 -27,-48 -41,-71l-39 -67c-2,-4 -5,-7 -8,-10 0,2 -1,4 -2,6 -11,25 -30,48 -50,64z"/>
  <path class="fil0" d="M645 387c18,0 34,-4 48,-12 14,-7 25,-18 33,-32 8,-13 12,-29 12,-46 0,-15 -2,-28 -7,-38 -5,-11 -11,-20 -19,-27 -8,-7 -16,-13 -26,-18 -9,-5 -18,-10 -27,-14l-22 -11c-7,-4 -12,-8 -17,-12 -3,-5 -6,-10 -6,-17 0,-8 3,-14 8,-19 6,-4 12,-6 21,-6 14,0 26,7 35,21 7,10 15,15 26,15 9,0 17,-3 24,-10 6,-6 10,-14 10,-23 0,-6 -2,-12 -5,-17 -11,-16 -24,-29 -39,-38 -15,-9 -32,-13 -51,-13 -18,0 -33,4 -48,12 -14,7 -25,18 -33,32 -9,13 -13,29 -13,46 0,15 3,28 7,38 5,11 12,20 20,27 8,7 16,13 25,18 10,5 19,10 28,14l22 11c7,4 12,8 16,12 4,5 6,10 6,17 0,8 -2,14 -8,19 -5,4 -12,6 -20,6 -15,0 -27,-7 -35,-21 -7,-10 -16,-15 -26,-15 -9,0 -17,3 -24,9 -1,1 -2,2 -3,3 4,2 8,5 11,8 6,5 12,10 17,17 5,7 10,15 13,24 4,11 6,22 6,32 13,5 27,8 41,8z"/>
  <path class="fil0" d="M372 267l0 0zm110 -4c31,-22 47,-52 48,-90 0,-17 -3,-31 -10,-44 -6,-13 -15,-24 -26,-32 -11,-9 -23,-16 -37,-20 -14,-5 -29,-7 -45,-7 -20,0 -36,2 -49,7 -17,7 -25,18 -25,33l3 165c8,-4 15,-6 24,-7l7 -1c29,-3 54,8 73,25l10 -2c14,-3 28,-5 42,-6 -5,-8 -10,-15 -15,-21zm-49 -47c-9,3 -19,5 -28,6l-1 -87 8 0c8,0 17,1 25,4 8,2 15,6 20,12 6,6 8,14 9,23 -1,11 -4,19 -10,26 -6,7 -14,12 -23,16z"/>
  <path class="fil0" d="M307 299l-70 -206c-2,-7 -6,-13 -12,-17 -6,-4 -12,-6 -19,-6 -8,0 -14,2 -19,6 -6,4 -10,10 -12,17l-78 252c-1,4 -1,8 -1,12 0,9 4,16 11,22 6,5 14,8 23,8 14,0 24,-7 30,-23l9 -30 81 0 11 31c2,6 4,10 7,13 4,-21 12,-41 23,-59 4,-7 10,-14 16,-20zm-99 -91l20 61 -39 0 19 -61z"/>
  <path class="fil0" d="M278 473l0 0zm24 39c-10,-11 -18,-25 -24,-39 -3,-7 -6,-16 -8,-25 -2,-8 -4,-17 -4,-25 0,-1 0,-1 0,-2 -9,1 -16,4 -21,9 -7,6 -10,14 -10,23l3 108 -69 0 -2 -108c-1,-10 -4,-18 -10,-23 -6,-6 -13,-9 -23,-9 -9,0 -17,3 -23,9 -6,6 -9,14 -9,23l5 254c1,9 4,17 10,23 6,5 13,8 22,8 10,0 17,-3 24,-9 6,-6 9,-14 9,-23l-2 -80 69 0 2 81c0,9 3,17 9,23 6,5 14,8 23,8 10,0 18,-3 24,-9 6,-6 9,-14 9,-23l-1 -83 -3 -84 0 -27z"/>
  <path class="fil1" d="M1436 -29c263,0 477,213 477,476 0,264 -214,477 -477,477 -263,0 -476,-213 -476,-477 0,-263 213,-476 476,-476z"/>
 </g>
</svg>
