<?xml version="1.0" encoding="UTF-8"?>
<!DOCTYPE svg PUBLIC "-//W3C//DTD SVG 1.1//EN" "http://www.w3.org/Graphics/SVG/1.1/DTD/svg11.dtd">
<!-- Creator: CorelDRAW X7 -->
<svg xmlns="http://www.w3.org/2000/svg" xml:space="preserve" width="15.819mm" height="2.97mm" version="1.1" style="shape-rendering:geometricPrecision; text-rendering:geometricPrecision; image-rendering:optimizeQuality; fill-rule:evenodd; clip-rule:evenodd"
viewBox="0 0 1582 297"
 xmlns:xlink="http://www.w3.org/1999/xlink">
 <defs>
  <style type="text/css">
   <![CDATA[
    .fil1 {fill:#704232}
    .fil0 {fill:#F27C4A}
   ]]>
  </style>
 </defs>
 <g id="Layer_x0020_1">
  <metadata id="CorelCorpID_0Corel-Layer"/>
  <g id="_1859562570736">
   <path class="fil0" d="M1577 220c0,-20 -16,-36 -36,-36 -19,0 -36,16 -36,36 0,20 17,36 36,36 20,0 36,-16 36,-36z"/>
   <path class="fil1" d="M297 277c-23,-14 -24,-27 -31,-47 -1,-2 -51,-166 -51,-169 -7,-20 -28,-55 -63,-55l-54 0c-6,0 -10,7 -5,12 14,14 13,32 7,52l-50 160c-9,26 -22,38 -39,47 -7,4 -3,12 3,12l83 0c6,0 8,-8 4,-12 -34,-32 -30,-60 -25,-75l96 0c5,33 6,62 -4,75 -4,5 0,12 5,12l123 0c6,0 9,-8 1,-12zm-216 -91l41 -134c11,10 36,75 47,134l-88 0zm398 -102c-27,0 -53,31 -66,50l5 -36c1,-7 6,-16 -5,-14 -21,5 -43,41 -97,41 -5,0 -7,6 -2,11 19,15 23,27 23,47l0 47c0,20 -4,33 -23,47 -5,4 -3,12 2,12l108 0c12,0 12,-10 6,-14 -16,-12 -23,-51 -19,-113 10,-20 29,-40 42,-40 10,0 5,11 3,23 -6,43 87,26 77,-27 -5,-23 -32,-34 -54,-34zm141 29c2,-18 29,-21 27,10 -5,49 89,40 70,-2 -13,-27 -54,-38 -89,-37l-1 0c-50,1 -88,27 -83,68 6,56 110,60 99,107 -4,18 -30,21 -27,-10 4,-48 -90,-40 -70,3 12,26 53,37 89,37l1 -1c48,-1 88,-34 83,-65 -8,-51 -108,-62 -99,-110zm382 164c-19,-14 -23,-27 -23,-47l0 -37c0,-61 -37,-109 -98,-109 -21,0 -38,12 -50,27 1,-30 4,-61 9,-91 1,-7 6,-16 -5,-14 -21,4 -45,41 -98,41 -6,0 -8,7 -3,11 20,14 23,27 23,47l0 125c0,20 -3,33 -23,47 -5,4 -3,12 3,12l109 0c13,0 12,-10 6,-14 -13,-10 -22,-67 -22,-134 11,-22 25,-34 35,-34 38,0 55,136 19,168 -5,5 -6,14 6,14l110 0c6,0 8,-8 2,-12zm201 -52c-15,20 -49,28 -69,22 -23,-7 -35,-22 -40,-40 11,5 24,8 38,8 44,0 79,-29 79,-65 0,-37 -46,-66 -90,-66 -66,0 -115,46 -115,102 0,57 49,103 111,103 43,0 80,-23 98,-56 3,-6 -6,-15 -12,-8zm-84 -126c15,0 25,23 25,51 0,27 -10,49 -25,49 -14,0 -28,-18 -28,-47 0,-36 19,-53 28,-53zm378 178c-20,-14 -23,-27 -23,-47l0 -37c0,-61 -38,-109 -98,-109 -18,0 -32,11 -43,26l1 -12c1,-7 7,-16 -5,-14 -21,5 -43,41 -96,41 -6,0 -8,6 -2,11 19,15 22,27 22,47l0 47c0,20 -3,33 -22,47 -6,4 -4,12 2,12l108 0c11,0 11,-10 5,-14 -16,-13 -24,-58 -18,-128 10,-21 21,-38 32,-38 38,0 54,134 19,166 -6,5 -7,14 5,14l110 0c6,0 8,-8 3,-12z"/>
  </g>
 </g>
</svg>
