<?xml version="1.0" encoding="UTF-8"?>
<!DOCTYPE svg PUBLIC "-//W3C//DTD SVG 1.1//EN" "http://www.w3.org/Graphics/SVG/1.1/DTD/svg11.dtd">
<!-- Creator: CorelDRAW X7 -->
<svg xmlns="http://www.w3.org/2000/svg" xml:space="preserve" width="6.677mm" height="6.677mm" version="1.1" style="shape-rendering:geometricPrecision; text-rendering:geometricPrecision; image-rendering:optimizeQuality; fill-rule:evenodd; clip-rule:evenodd"
viewBox="0 0 668 668"
 xmlns:xlink="http://www.w3.org/1999/xlink">
 <defs>
  <style type="text/css">
   <![CDATA[
    .fil0 {fill:#704232}
    .fil1 {fill:#F27C4A}
   ]]>
  </style>
 </defs>
 <g id="Layer_x0020_1">
  <metadata id="CorelCorpID_0Corel-Layer"/>
  <g id="_1859562397712">
   <path class="fil0" d="M195 257c-1,-2 -38,-123 -38,-124 -5,-15 -21,-41 -46,-41l-40 0c-5,0 -7,5 -4,9 10,10 9,23 5,38l-37 118c-6,19 -16,28 -28,35 -5,3 -3,8 1,8l62 0c4,0 6,-5 3,-8 -25,-24 -22,-44 -19,-56l71 0c4,25 4,46 -3,56 -3,3 0,8 4,8l91 0c4,0 6,-5 0,-8 -17,-11 -18,-20 -22,-35zm-107 -131c9,8 27,55 35,99l-65 0 30 -99z"/>
   <path class="fil0" d="M344 153c0,25 -18,46 -40,49l0 -6c0,-26 -1,-71 9,-89 18,7 31,25 31,46zm-98 -18l0 122c0,15 -2,24 -16,35 -4,3 -3,8 1,8l82 0c9,0 9,-7 4,-10 -11,-9 -13,-45 -13,-73 3,-2 7,-3 10,-3 22,0 26,25 30,43 4,15 6,24 -5,35 -3,3 -2,8 3,8l79 0c9,0 8,-7 3,-10 -36,-22 -46,-62 -72,-79 29,-7 50,-30 50,-58 0,-33 -32,-61 -70,-61l-101 0c-4,0 -5,5 -1,9 14,10 16,20 16,34z"/>
   <path class="fil0" d="M436 159c5,63 116,75 104,116 -7,24 -47,20 -92,-46 -7,-12 -13,-9 -13,2l0 63c0,18 22,-11 39,-6 14,5 27,13 51,12l1 0c44,-1 78,-32 73,-64 -4,-24 -29,-42 -52,-58 -26,-18 -56,-35 -52,-60 3,-19 35,-21 32,9 -3,50 83,46 65,3 -11,-27 -50,-38 -82,-38l-1 0c-45,2 -76,25 -73,67z"/>
   <path class="fil0" d="M569 522l-70 -147c-9,-19 -22,-28 -44,-28l-46 0c-4,0 -6,5 -2,8 14,11 17,10 17,25l0 141c0,15 -3,15 -17,25 -4,4 -2,9 2,9l42 0c4,0 6,-5 1,-9 -14,-10 -17,-10 -17,-25l0 -141 70 146c10,20 23,29 45,29l46 0c4,0 6,-5 1,-9 -13,-10 -16,-10 -16,-25l0 -141c0,-15 3,-14 16,-25 5,-3 3,-8 -1,-8l-42 0c-4,0 -6,5 -1,8 13,11 16,10 16,25l0 142z"/>
   <path class="fil0" d="M355 477l0 -52c0,-6 -5,-7 -8,-2 -11,13 -9,22 -34,22l-8 0c0,-40 3,-71 5,-86 13,0 20,2 30,20 15,26 54,25 54,-5 0,-21 -26,-27 -47,-27l-114 0c-5,0 -6,5 -2,8 14,11 17,20 17,35l0 122c0,15 -3,24 -17,34 -4,4 -3,9 2,9l152 0c8,0 11,-3 11,-12l0 -35c0,-5 -5,-6 -8,-2 -11,14 -22,37 -47,37l-31 0c-4,-31 -5,-60 -5,-87l8 0c25,0 23,9 34,23 3,4 8,3 8,-2z"/>
   <path class="fil0" d="M218 545c-15,-12 -16,-66 -16,-94 0,-29 1,-82 16,-94 4,-3 4,-10 -4,-10l-85 0c-4,0 -6,5 -2,8 15,11 17,20 17,35l0 59 -64 0c0,-29 2,-81 17,-92 5,-3 5,-10 -4,-10l-85 0c-4,0 -6,5 -2,8 15,11 17,20 17,35l0 122c0,15 -2,24 -17,34 -4,4 -2,9 2,9l85 0c9,0 9,-7 4,-10 -13,-11 -16,-55 -17,-84l64 0 0 51c0,15 -2,24 -17,34 -4,4 -2,9 2,9l85 0c8,0 8,-7 4,-10z"/>
   <path class="fil1" d="M667 504c0,-16 -13,-29 -29,-29 -17,0 -30,13 -30,29 0,16 13,29 30,29 16,0 29,-13 29,-29z"/>
  </g>
 </g>
</svg>
