<?xml version="1.0" encoding="UTF-8"?>
<!DOCTYPE svg PUBLIC "-//W3C//DTD SVG 1.1//EN" "http://www.w3.org/Graphics/SVG/1.1/DTD/svg11.dtd">
<!-- Creator: CorelDRAW X7 -->
<svg xmlns="http://www.w3.org/2000/svg" xml:space="preserve" width="15.826mm" height="2.964mm" version="1.1" style="shape-rendering:geometricPrecision; text-rendering:geometricPrecision; image-rendering:optimizeQuality; fill-rule:evenodd; clip-rule:evenodd"
viewBox="0 0 1583 296"
 xmlns:xlink="http://www.w3.org/1999/xlink">
 <defs>
  <style type="text/css">
   <![CDATA[
    .fil0 {fill:#704232}
    .fil1 {fill:#F27C4A}
   ]]>
  </style>
 </defs>
 <g id="Layer_x0020_1">
  <metadata id="CorelCorpID_0Corel-Layer"/>
  <path class="fil0" d="M122 59c14,35 -16,70 -28,93 -22,39 -5,75 25,100 14,12 4,21 -9,8 -76,-72 -18,-118 -3,-156 20,-49 -17,-51 -6,-62 8,-8 18,10 21,17l0 0zm-121 108c1,16 5,34 11,47 18,43 56,78 106,70 62,-10 96,-82 90,-145 -5,-64 -51,-127 -117,-116 -63,10 -94,82 -90,144l0 0z"/>
  <path class="fil0" d="M221 142c1,29 -3,49 -12,74 -8,23 -19,35 -33,52 22,1 54,-13 72,-24 45,-27 86,-89 66,-148 -6,-18 -17,-28 -28,-38 -26,-23 -67,-22 -104,-13 2,4 8,10 13,17 4,7 7,12 11,20 6,14 10,30 14,47 18,0 47,-10 55,-29 4,-10 -2,-19 12,-16 8,16 -9,35 -18,41 -13,10 -30,14 -48,17l0 0z"/>
  <path class="fil0" d="M506 275c5,14 15,21 28,21 8,0 16,-3 22,-8 7,-6 10,-13 10,-21 0,-4 -1,-8 -2,-11l-79 -236c-3,-6 -7,-11 -12,-15 -5,-4 -11,-6 -18,-6 -7,0 -13,2 -18,6 -5,4 -8,9 -10,16l-73 236c-1,3 -2,7 -2,10 1,9 4,16 10,21 7,5 14,8 22,8 14,0 23,-7 28,-22l9 -28 76 0 9 29zm-49 -146l19 56 -37 0 18 -56z"/>
  <path class="fil0" d="M579 37l4 229c0,9 3,16 9,22 5,5 13,8 21,8 9,0 16,-3 22,-9 6,-5 9,-12 9,-21l-1 -64 6 -1c5,4 11,10 17,18 6,7 12,16 17,25 4,8 7,16 7,22 0,9 3,16 9,21 5,6 13,9 21,9 9,0 16,-3 22,-9 6,-5 9,-12 9,-21 0,-9 -2,-19 -6,-30 -4,-11 -9,-21 -15,-31 -6,-9 -11,-18 -17,-25 29,-21 44,-49 45,-84 0,-16 -3,-30 -9,-42 -6,-12 -14,-22 -24,-30 -10,-8 -22,-14 -35,-18 -14,-4 -27,-7 -42,-7 -19,0 -34,3 -46,7 -15,6 -23,16 -23,31zm88 98c-8,4 -17,6 -26,6l-1 -81 8 0c8,0 15,1 23,3 8,3 14,7 19,12 5,6 8,13 8,22 0,10 -3,18 -9,24 -6,6 -13,11 -22,14z"/>
  <path class="fil0" d="M801 144c7,7 15,13 24,17 8,5 17,9 25,13 8,4 15,7 21,11 7,3 12,7 15,11 4,4 6,9 6,15 0,8 -2,14 -7,18 -5,4 -11,6 -19,6 -14,0 -25,-7 -34,-20 -6,-9 -14,-14 -24,-14 -8,0 -15,3 -22,9 -6,6 -10,13 -10,22 0,5 2,11 6,16 9,15 21,27 36,35 14,9 30,13 48,13 16,0 31,-4 44,-11 13,-7 24,-17 31,-30 8,-13 12,-28 12,-44 0,-14 -2,-26 -7,-35 -4,-10 -10,-18 -18,-25 -7,-7 -15,-13 -24,-17 -8,-5 -17,-9 -25,-13 -8,-3 -15,-7 -21,-10 -7,-4 -12,-8 -15,-12 -4,-4 -6,-9 -6,-15 0,-8 2,-14 7,-18 5,-4 12,-6 19,-6 14,0 25,7 34,20 6,9 14,14 24,14 8,0 16,-3 22,-9 6,-6 9,-13 10,-22 0,-6 -2,-11 -5,-16 -10,-15 -22,-27 -36,-35 -15,-9 -31,-13 -49,-13 -16,0 -31,4 -44,11 -13,7 -23,17 -31,30 -8,13 -12,27 -12,44 0,14 2,26 7,35 4,10 10,19 18,25z"/>
  <path class="fil1" d="M978 30l5 236c0,9 3,17 9,22 5,5 12,8 21,8 9,0 16,-3 22,-9 6,-5 9,-13 9,-21l-2 -75 64 0 2 75c0,9 3,17 9,22 5,5 12,8 21,8 9,0 16,-3 22,-9 6,-6 8,-13 8,-22 0,-25 0,-51 -1,-77l-2 -79 -2 -80c0,-9 -3,-16 -9,-22 -5,-5 -13,-8 -21,-8 -9,0 -16,3 -22,9 -6,5 -8,12 -8,21l2 101 -64 0 -2 -101c-1,-9 -4,-16 -9,-22 -6,-5 -13,-8 -22,-8 -9,0 -16,3 -22,9 -5,5 -8,13 -8,22z"/>
  <path class="fil1" d="M1213 108c2,51 3,103 3,155 0,9 3,16 9,23 5,7 13,10 22,10l79 0c9,0 16,-3 21,-9 6,-6 8,-13 8,-22 0,-8 -2,-16 -8,-21 -5,-6 -12,-9 -21,-9l-50 0 -1 -44 36 0c9,0 16,-3 22,-9 6,-5 8,-13 8,-22 0,-8 -2,-16 -8,-21 -6,-6 -13,-9 -22,-9l-37 0 -1 -70 68 0c9,0 16,-3 21,-9 6,-5 9,-13 9,-21 0,-9 -3,-16 -9,-22 -5,-6 -12,-9 -21,-9l-100 0c-8,0 -15,3 -21,9 -6,6 -9,13 -9,22l2 78z"/>
  <path class="fil1" d="M1390 30l4 236c0,9 3,16 9,22 6,5 13,8 21,8 9,0 16,-3 22,-8 6,-6 9,-13 9,-22l-2 -109 72 121c3,5 7,9 11,13 5,3 10,5 16,5 9,0 16,-3 22,-9 6,-6 9,-14 9,-22l-4 -236c0,-9 -3,-16 -9,-22 -6,-5 -13,-8 -21,-8 -9,0 -16,3 -22,9 -6,5 -9,12 -9,21l3 115c-13,-22 -25,-44 -38,-66 -13,-21 -25,-42 -36,-63 -7,-10 -15,-16 -27,-16 -8,0 -16,3 -22,9 -5,6 -8,13 -8,22z"/>
 </g>
</svg>
