<?xml version="1.0" encoding="UTF-8"?>
<!DOCTYPE svg PUBLIC "-//W3C//DTD SVG 1.1//EN" "http://www.w3.org/Graphics/SVG/1.1/DTD/svg11.dtd">
<!-- Creator: CorelDRAW X7 -->
<svg xmlns="http://www.w3.org/2000/svg" xml:space="preserve" width="8.4666mm" height="8.4666mm" version="1.1" style="shape-rendering:geometricPrecision; text-rendering:geometricPrecision; image-rendering:optimizeQuality; fill-rule:evenodd; clip-rule:evenodd"
viewBox="0 0 847 847"
 xmlns:xlink="http://www.w3.org/1999/xlink">
 <defs>
  <style type="text/css">
   <![CDATA[
    .fil0 {fill:#FEFEFE}
    .fil1 {fill:#704232}
    .fil2 {fill:#B4814A}
   ]]>
  </style>
 </defs>
 <g id="Layer_x0020_1">
  <metadata id="CorelCorpID_0Corel-Layer"/>
  <path class="fil0" d="M840 424c0,-230 -187,-417 -417,-417 -230,0 -417,187 -417,417 0,231 187,417 417,417 230,0 417,-186 417,-417z"/>
  <g id="_270744728">
   <g>
    <path id="Fill-14" class="fil1" d="M492 479c9,-4 18,-7 28,-9 27,-5 54,-2 76,8 21,11 34,26 37,44 7,32 -17,66 -57,84 -8,4 -18,7 -27,9 -55,11 -106,-13 -114,-53 -6,-31 17,-66 57,-83l0 0zm102 167c59,-26 92,-80 82,-132 -7,-32 -28,-58 -60,-74 -31,-16 -68,-20 -105,-12 -13,2 -25,6 -36,11 -59,26 -93,80 -82,132 13,63 87,102 165,86 12,-2 24,-6 36,-11z"/>
   </g>
   <g>
    <path id="Fill-16" class="fil2" d="M418 581c0,0 64,-65 116,-39 43,22 112,-38 112,-38l-228 77zm0 0l0 0 0 0z"/>
   </g>
   <path id="Fill-18" class="fil1" d="M602 557c30,-13 54,-33 58,-37 9,-8 10,-21 3,-30 -8,-10 -22,-11 -31,-3 -24,20 -68,46 -88,36 -65,-33 -138,39 -141,42 -9,9 -9,23 0,31 8,9 22,8 31,0 0,-1 54,-53 91,-34 24,12 52,6 77,-5z"/>
   <g>
    <path id="Fill-24" class="fil1" d="M294 217c2,0 4,0 6,0 26,2 50,18 68,45 18,28 27,64 24,102 -6,77 -57,136 -114,132 -56,-5 -98,-71 -92,-148 6,-73 53,-131 108,-131l0 0zm-10 322c77,0 143,-75 151,-171 4,-48 -7,-94 -31,-130 -25,-38 -61,-61 -101,-64 -81,-6 -152,71 -160,171 -8,101 51,187 132,194 3,0 6,0 9,0z"/>
   </g>
   <g>
    <path id="Fill-26" class="fil2" d="M282 196c0,0 58,104 7,160 -42,46 9,156 9,156l-16 -316zm0 0l0 0 0 0z"/>
   </g>
   <path id="Fill-28" class="fil1" d="M298 533c3,0 6,0 9,-2 10,-5 15,-17 10,-28 -11,-25 -38,-103 -12,-132 61,-67 -1,-181 -4,-185 -6,-11 -19,-15 -29,-9 -11,6 -14,19 -9,30 14,25 43,98 10,135 -50,55 -1,166 5,179 4,8 11,12 20,12z"/>
  </g>
 </g>
</svg>
