<?xml version="1.0" encoding="UTF-8"?>
<!DOCTYPE svg PUBLIC "-//W3C//DTD SVG 1.1//EN" "http://www.w3.org/Graphics/SVG/1.1/DTD/svg11.dtd">
<!-- Creator: CorelDRAW X7 -->
<svg xmlns="http://www.w3.org/2000/svg" xml:space="preserve" width="8.4666mm" height="8.4666mm" version="1.1" style="shape-rendering:geometricPrecision; text-rendering:geometricPrecision; image-rendering:optimizeQuality; fill-rule:evenodd; clip-rule:evenodd"
viewBox="0 0 847 847"
 xmlns:xlink="http://www.w3.org/1999/xlink">
 <defs>
  <style type="text/css">
   <![CDATA[
    .fil0 {fill:#FEFEFE}
    .fil1 {fill:#704232}
    .fil2 {fill:#704232;fill-rule:nonzero}
   ]]>
  </style>
 </defs>
 <g id="Layer_x0020_1">
  <metadata id="CorelCorpID_0Corel-Layer"/>
  <path class="fil0" d="M840 424c0,-230 -187,-417 -417,-417 -230,0 -417,187 -417,417 0,231 187,417 417,417 230,0 417,-186 417,-417z"/>
  <path id="Fill-16" class="fil1" d="M574 664l-30 -25 0 -387 30 114 0 298zm-57 14l16 -17 20 17 -36 0zm-25 -314l28 -112 0 388 -28 28 0 -304zm-21 -16l-216 0 67 -180 195 0 -46 180zm-221 330l218 0 0 -125 -218 0 0 125zm0 -149l216 0 0 -157 -216 0 0 157zm76 -385l194 0 0 -13 -194 0 0 13zm271 218l-53 -208 0 -35c0,-7 -5,-12 -12,-12l-218 0c-7,0 -13,5 -13,12l0 35 -74 202c0,0 0,0 0,0 -1,1 -1,3 -1,4l0 181 0 149c0,7 5,13 12,13l242 0 8 0 98 0c6,0 12,-6 12,-13l0 0 0 0 0 -325c0,-1 0,-2 -1,-3l0 0z"/>
  <path class="fil2" d="M571 666l-29 -24 -1 -1 0 -2 0 -387 0 -26 7 25 29 114 0 1 0 0 0 298 0 7 -6 -5zm-23 -28l22 19 0 -290 -22 -88 0 359zm-33 38l16 -17 2 -2 2 2 20 16 7 6 -9 0 -36 0 -8 0 6 -5zm18 -10l-8 9 19 0 -11 -9zm-44 -303l28 -112 7 -25 0 26 0 388 0 1 -1 1 -29 29 -6 5 0 -8 0 -304 0 0 1 -1zm28 -85l-22 87 0 295 22 -22 0 -360zm-46 73l-216 0 -4 0 1 -4 67 -180 0 -2 3 0 195 0 4 0 -1 4 -46 180 0 2 -3 0zm-211 -6l208 0 45 -174 -189 0 -64 174zm-7 330l211 0 0 -118 -211 0 0 118zm215 7l-218 0 -3 0 0 -4 0 -125 0 -3 3 0 218 0 3 0 0 3 0 125 0 4 -3 0zm-215 -156l209 0 0 -151 -209 0 0 151zm213 6l-216 0 -3 0 0 -3 0 -157 0 -3 3 0 216 0 3 0 0 3 0 157 0 3 -3 0zm-137 -391l188 0 0 -7 -188 0 0 7zm191 6l-194 0 -4 0 0 -3 0 -13 0 -3 4 0 194 0 3 0 0 3 0 13 0 3 -3 0zm74 216l-53 -208 0 0 0 -1 0 -35c0,-2 -1,-5 -2,-6 -2,-2 -4,-3 -7,-3l-218 0c-3,0 -5,1 -7,3 -1,1 -2,4 -2,6l0 35 0 0 -1 1 -74 202c0,0 0,0 0,0l0 0c0,1 0,1 -1,2 0,0 0,1 0,1l0 181 0 149c0,3 1,5 3,7 1,1 4,2 6,2l242 0 8 0 98 0c2,0 4,-1 6,-2 1,-2 2,-4 2,-7l0 0 0 0 0 -325c0,-1 0,-1 0,-1 0,-1 0,-1 0,-1zm-46 -209l53 207c0,1 0,1 0,2 0,1 0,1 0,2l0 325 0 0 0 0c0,5 -2,9 -5,11 -2,3 -6,5 -10,5l-98 0 -8 0 -242 0c-4,0 -8,-2 -11,-5 -3,-2 -4,-6 -4,-11l0 -149 0 -181c0,-1 0,-2 0,-3 0,0 0,-1 0,-2 1,0 1,0 1,0l0 0 74 -202 0 -34c0,-4 2,-8 5,-11 2,-3 6,-4 11,-4l218 0c4,0 8,1 11,4 3,3 5,7 5,11l0 35z"/>
 </g>
</svg>
