<?xml version="1.0" encoding="UTF-8"?>
<!DOCTYPE svg PUBLIC "-//W3C//DTD SVG 1.1//EN" "http://www.w3.org/Graphics/SVG/1.1/DTD/svg11.dtd">
<!-- Creator: CorelDRAW X7 -->
<svg xmlns="http://www.w3.org/2000/svg" xml:space="preserve" width="8.4666mm" height="8.4666mm" version="1.1" style="shape-rendering:geometricPrecision; text-rendering:geometricPrecision; image-rendering:optimizeQuality; fill-rule:evenodd; clip-rule:evenodd"
viewBox="0 0 847 847"
 xmlns:xlink="http://www.w3.org/1999/xlink">
 <defs>
  <style type="text/css">
   <![CDATA[
    .fil0 {fill:#FEFEFE}
    .fil1 {fill:#704232}
    .fil3 {fill:#FEFEFE}
    .fil2 {fill:#704232;fill-rule:nonzero}
   ]]>
  </style>
 </defs>
 <g id="Layer_x0020_1">
  <metadata id="CorelCorpID_0Corel-Layer"/>
  <path class="fil0" d="M840 424c0,-230 -187,-417 -417,-417 -230,0 -417,187 -417,417 0,231 187,417 417,417 230,0 417,-186 417,-417z"/>
  <path id="Fill-3" class="fil1" d="M199 389c14,84 43,188 103,237 7,5 14,8 23,8l154 0c8,0 16,-3 23,-8 60,-49 89,-153 103,-237l-406 0zm280 270l-154 0c-14,0 -28,-5 -39,-14 -70,-57 -100,-176 -114,-266 -1,-4 0,-8 3,-10 2,-3 6,-5 9,-5l436 0c3,0 7,2 9,5 2,2 3,6 3,10 -14,90 -45,209 -114,266 -11,9 -25,14 -39,14l0 0z"/>
  <path class="fil2" d="M213 401c8,43 20,89 38,130 15,35 34,65 59,85 2,2 4,3 7,4 2,1 5,2 8,2l154 0c3,0 5,-1 8,-2 2,-1 5,-2 7,-4 25,-20 44,-50 59,-85 18,-41 30,-87 37,-130l-377 0zm266 270l-154 0c-8,0 -17,-1 -25,-4 -8,-3 -15,-7 -22,-13 -31,-26 -56,-63 -74,-106 -23,-54 -37,-116 -44,-168 -1,-3 -1,-7 0,-10l0 0c1,-4 3,-7 5,-9l0 0c3,-3 6,-5 9,-7l0 0c3,-1 7,-2 10,-2l436 0c3,0 7,1 10,2l0 0c3,2 6,4 8,7 3,2 5,5 6,9l0 0c1,3 1,7 0,10 -8,52 -21,114 -44,168l-1 0c-18,43 -42,80 -74,106 -6,6 -14,10 -21,13 -8,3 -17,4 -25,4z"/>
  <path id="Fill-14" class="fil1" d="M322 322c-7,0 -13,-6 -13,-12l0 -78c0,-7 6,-12 13,-12 7,0 12,5 12,12l0 78c0,6 -5,12 -12,12z"/>
  <path class="fil2" d="M322 334c-7,0 -13,-2 -18,-7 -4,-4 -7,-11 -7,-17l0 -78c0,-7 3,-13 7,-18 5,-4 11,-7 18,-7 7,0 13,3 17,7l0 1c5,4 8,10 8,17l0 78c0,6 -3,13 -8,17 -4,5 -10,7 -17,7z"/>
  <path id="Fill-16" class="fil1" d="M478 322c-7,0 -12,-6 -12,-12l0 -78c0,-7 5,-12 12,-12 7,0 12,5 12,12l0 78c0,6 -5,12 -12,12z"/>
  <path class="fil2" d="M478 334c-7,0 -13,-2 -18,-7 -4,-4 -7,-11 -7,-17l0 -78c0,-7 3,-13 7,-17l0 -1c5,-4 11,-7 18,-7 7,0 13,3 17,7 5,5 8,11 8,18l0 78c0,6 -3,13 -8,17 -4,5 -10,7 -17,7z"/>
  <path id="Fill-18" class="fil1" d="M400 322c-7,0 -13,-6 -13,-12l0 -136c0,-7 6,-12 13,-12 7,0 12,5 12,12l0 136c0,6 -5,12 -12,12z"/>
  <path class="fil2" d="M400 334c-7,0 -13,-2 -18,-7 -4,-4 -7,-11 -7,-17l0 -136c0,-7 3,-13 7,-17 5,-5 11,-8 18,-8 7,0 13,3 17,8 5,4 8,10 8,17l0 136c0,6 -3,13 -8,17 -4,5 -10,7 -17,7z"/>
  <g>
   <path id="Fill-20" class="fil3" d="M269 602l266 0 -266 0zm0 0l0 0 0 0z"/>
  </g>
  <path id="Fill-22" class="fil1" d="M535 594l-266 0c-7,0 -12,-5 -12,-12 0,-7 5,-12 12,-12l266 0c7,0 12,5 12,12 0,7 -5,12 -12,12z"/>
  <path class="fil2" d="M535 599l-266 0c-5,0 -9,-2 -12,-5 -3,-3 -5,-7 -5,-12 0,-5 2,-9 5,-12 3,-3 7,-5 12,-5l266 0c5,0 9,2 12,5 3,3 5,7 5,12 0,5 -2,9 -5,12 -3,3 -7,5 -12,5zm-266 -10l266 0c2,0 4,-1 5,-2 1,-1 2,-3 2,-5 0,-2 -1,-4 -2,-5 -1,-2 -3,-2 -5,-2l-266 0c-2,0 -4,0 -5,2 -2,1 -2,3 -2,5 0,2 0,4 2,5 1,1 3,2 5,2z"/>
  <g>
   <path id="Fill-8" class="fil3" d="M639 397c-3,0 -6,0 -9,0 -3,19 -6,37 -10,55 4,-3 8,-5 13,-5 15,0 28,9 28,30 0,27 -33,42 -48,42 -6,0 -8,-3 -9,-7 -7,22 -15,44 -25,64 2,0 5,1 8,1 38,0 121,-39 121,-106 0,-54 -31,-74 -69,-74z"/>
   <g>
    <path id="Fill-10" class="fil1" d="M611 532c-4,11 -9,22 -13,32 36,-6 97,-40 97,-93 0,-41 -18,-61 -55,-62 -1,9 -3,18 -4,26 23,1 37,17 37,42 0,35 -40,55 -60,55 -1,0 -2,0 -2,0l0 0zm-24 57c-4,0 -8,0 -12,-2 -3,-1 -6,-3 -7,-7 -2,-3 -2,-7 0,-10 9,-18 17,-39 24,-62 2,-5 7,-9 13,-9 5,1 9,4 11,8 11,-2 32,-13 32,-30 0,-15 -7,-17 -15,-17 -2,0 -4,0 -7,2 -4,3 -9,2 -13,0 -4,-3 -6,-8 -5,-13 3,-17 7,-35 9,-53 1,-6 5,-10 11,-11 4,0 7,-1 11,-1 51,0 81,33 81,87 0,73 -86,118 -133,118z"/>
   </g>
   <path class="fil2" d="M614 537c-2,4 -3,9 -5,13l-3 7c19,-5 42,-16 59,-33 15,-14 25,-32 25,-53 0,-19 -4,-33 -12,-43 -8,-8 -19,-13 -34,-14l-1 9 -1 8c10,1 19,6 25,13 7,8 11,19 11,33 0,17 -8,30 -19,40l0 0c-14,12 -32,19 -45,20zm-14 9c2,-5 4,-11 6,-16l5 2 0 -5 2 0c10,0 27,-6 39,-17l0 0c9,-8 16,-19 16,-33 0,-11 -3,-20 -9,-26 -5,-7 -13,-10 -24,-11l-5 0 1 -6c0,-4 1,-8 2,-13 1,-5 2,-9 2,-13l1 -4 4 0c20,0 35,6 45,18 10,11 15,28 15,49 0,24 -12,45 -28,60 -22,21 -52,34 -73,38l-9 1 3 -8c3,-5 5,-11 7,-16zm-13 48c-2,0 -5,0 -7,0 -2,-1 -4,-1 -7,-2l0 0c-2,-1 -4,-2 -6,-4l0 0c-2,-1 -3,-4 -4,-6l0 0c-1,-2 -1,-4 -1,-7 0,-2 0,-5 1,-7 5,-9 9,-19 13,-29 4,-10 8,-21 12,-33 1,-3 3,-6 6,-9 3,-2 7,-3 11,-3 3,1 7,2 9,3 2,1 3,3 4,4 5,-1 12,-5 18,-10l0 0c4,-4 7,-8 7,-14 0,-6 -1,-9 -3,-11 -1,-1 -4,-1 -7,-1 0,0 -1,0 -2,0 -1,0 -1,1 -2,1 -3,2 -6,3 -10,3l0 0c-3,0 -6,-1 -9,-3l0 0c-3,-2 -5,-5 -6,-8l0 0c-2,-3 -2,-7 -1,-10 2,-9 3,-18 5,-26l0 0c1,-9 3,-18 4,-27 1,-4 3,-7 5,-10l0 0c3,-2 6,-4 10,-5l0 0c2,0 4,0 6,0 2,0 4,-1 6,-1 27,0 48,9 63,25 15,16 23,39 23,67 0,34 -17,61 -40,82 -30,27 -70,41 -98,41zm-5 -10c1,0 3,0 5,0 26,0 63,-14 91,-38 21,-19 37,-45 37,-75 0,-26 -7,-46 -20,-60 -13,-14 -32,-22 -56,-22 -2,0 -3,1 -5,1 -2,0 -4,0 -5,0 -2,0 -4,1 -5,2l0 0c-1,1 -1,3 -2,4l0 0c-1,9 -3,18 -4,28 -2,9 -4,18 -5,26 -1,1 -1,3 0,4l0 0c0,1 1,3 2,3l0 0c2,1 3,2 5,2l0 0c1,0 2,-1 4,-1 1,-1 3,-2 4,-2 2,-1 4,-1 5,-1 5,0 10,1 14,4 4,3 6,9 6,18 0,9 -4,16 -11,22l0 0c-7,7 -18,12 -26,13l-4 0 -1 -3c-1,-1 -2,-3 -3,-3l0 0c-1,-1 -2,-2 -3,-2l-1 0c-1,0 -3,1 -4,2 -1,0 -2,2 -3,3 -4,12 -7,23 -12,33 -4,11 -8,21 -13,30 0,1 0,2 0,3 0,1 0,2 0,3l0 0c1,1 1,2 2,3l0 0c1,1 2,1 3,2l0 0c1,0 3,1 5,1z"/>
  </g>
 </g>
</svg>
