<?xml version="1.0" encoding="UTF-8"?>
<!DOCTYPE svg PUBLIC "-//W3C//DTD SVG 1.1//EN" "http://www.w3.org/Graphics/SVG/1.1/DTD/svg11.dtd">
<!-- Creator: CorelDRAW X7 -->
<svg xmlns="http://www.w3.org/2000/svg" xml:space="preserve" width="8.4666mm" height="8.4666mm" version="1.1" style="shape-rendering:geometricPrecision; text-rendering:geometricPrecision; image-rendering:optimizeQuality; fill-rule:evenodd; clip-rule:evenodd"
viewBox="0 0 847 847"
 xmlns:xlink="http://www.w3.org/1999/xlink">
 <defs>
  <style type="text/css">
   <![CDATA[
    .fil0 {fill:#FEFEFE}
    .fil1 {fill:#704232}
    .fil2 {fill:#704232;fill-rule:nonzero}
   ]]>
  </style>
 </defs>
 <g id="Layer_x0020_1">
  <metadata id="CorelCorpID_0Corel-Layer"/>
  <path class="fil0" d="M840 424c0,-230 -187,-417 -417,-417 -230,0 -417,187 -417,417 0,231 187,417 417,417 230,0 417,-186 417,-417z"/>
  <path id="Fill-3" class="fil1" d="M266 244l0 351c0,20 16,36 35,36l229 0c20,0 35,-16 35,-36l0 -351 -299 0zm264 410l-229 0c-32,0 -59,-26 -59,-59l0 -363c0,-6 6,-11 12,-11l323 0c7,0 12,5 12,11l0 363c0,33 -27,59 -59,59l0 0z"/>
  <path class="fil2" d="M274 252l0 343c0,8 3,15 8,20l0 0c5,4 12,7 19,7l229 0c8,0 14,-3 19,-7l0 0c5,-5 8,-12 8,-20l0 -343 -283 0zm-17 343l0 -351 0 -8 9 0 299 0 9 0 0 8 0 351c0,12 -5,23 -13,31l0 0c-8,8 -19,13 -31,13l-229 0c-12,0 -23,-5 -31,-13l0 0c-8,-8 -13,-19 -13,-31zm273 67l-229 0c-18,0 -35,-7 -47,-19l0 0c-12,-12 -20,-29 -20,-48l0 -363c0,-5 2,-10 6,-14l0 0c4,-3 9,-5 14,-5l323 0c6,0 10,2 14,5l0 0c4,4 6,9 6,14l0 363c0,19 -8,36 -20,48l0 0c-12,12 -28,19 -47,19zm-229 -16l229 0c14,0 27,-6 36,-15l0 0c9,-9 15,-22 15,-36l0 -363c0,-1 -1,-1 -1,-2l0 0c-1,-1 -2,-1 -3,-1l-323 0c-1,0 -2,0 -2,1l0 0c-1,1 -2,1 -2,2l0 363c0,14 6,27 15,36l0 0c9,9 22,15 36,15z"/>
  <g>
   <path id="Fill-15" class="fil1" d="M399 367c-11,0 -21,4 -29,10 -26,20 -24,64 3,99 18,23 43,37 67,37 11,0 21,-4 29,-10 11,-9 18,-24 18,-42 0,-19 -8,-40 -22,-57 -17,-23 -43,-37 -66,-37l0 0zm41 178c-34,0 -68,-18 -92,-49 -39,-49 -38,-114 2,-145 14,-10 30,-16 49,-16 33,0 68,18 92,49 18,23 28,50 28,77 0,28 -11,52 -31,68 -13,10 -30,16 -48,16z"/>
  </g>
  <path id="Fill-19" class="fil1" d="M466 536c-8,0 -14,-5 -16,-13 -3,-20 -16,-63 -35,-67 -55,-14 -61,-94 -62,-97 0,-9 6,-17 15,-17 9,-1 17,6 18,15 0,1 5,59 37,67 45,12 58,85 59,94 2,8 -4,17 -13,18 -1,0 -2,0 -3,0z"/>
 </g>
</svg>
