<?xml version="1.0" encoding="UTF-8"?>
<!DOCTYPE svg PUBLIC "-//W3C//DTD SVG 1.1//EN" "http://www.w3.org/Graphics/SVG/1.1/DTD/svg11.dtd">
<!-- Creator: CorelDRAW X7 -->
<svg xmlns="http://www.w3.org/2000/svg" xml:space="preserve" width="8.4666mm" height="8.4666mm" version="1.1" style="shape-rendering:geometricPrecision; text-rendering:geometricPrecision; image-rendering:optimizeQuality; fill-rule:evenodd; clip-rule:evenodd"
viewBox="0 0 847 847"
 xmlns:xlink="http://www.w3.org/1999/xlink">
 <defs>
  <style type="text/css">
   <![CDATA[
    .fil0 {fill:#FEFEFE}
    .fil1 {fill:#704232}
    .fil2 {fill:#704232;fill-rule:nonzero}
   ]]>
  </style>
 </defs>
 <g id="Layer_x0020_1">
  <metadata id="CorelCorpID_0Corel-Layer"/>
  <path class="fil0" d="M840 424c0,-230 -187,-417 -417,-417 -230,0 -417,187 -417,417 0,231 187,417 417,417 230,0 417,-186 417,-417z"/>
  <path id="Fill-7" class="fil1" d="M310 658l220 0 42 -316 -304 0 42 316zm231 26l-243 0c-6,0 -12,-5 -13,-12l-45 -341c0,-4 1,-8 3,-10 3,-3 6,-5 10,-5l333 0c4,0 8,2 10,5 2,2 4,6 3,10l-45 341c-1,7 -6,12 -13,12l0 0z"/>
  <path class="fil2" d="M314 653l212 0 40 -306 -292 0 40 306zm216 10l-220 0 -5 0 0 -5 -42 -315 -1 -6 6 0 304 0 5 0 -1 6 -41 315 -1 5 -4 0zm11 26l-243 0c-4,0 -8,-2 -12,-5l0 0c-3,-2 -5,-6 -6,-11l-45 -341 0 0c0,-3 0,-6 1,-8 1,-2 2,-5 4,-7 1,-2 3,-3 6,-4 2,-1 5,-2 7,-2l333 0c3,0 5,1 8,2 2,1 4,2 6,4 1,2 3,5 3,7 1,2 1,5 1,8l0 0 -45 341c0,5 -3,9 -6,11l0 0c-3,3 -7,5 -12,5zm-243 -10l243 0c2,0 4,-1 6,-2 1,-1 2,-3 2,-5l45 -342c0,-1 0,-2 0,-3 0,-1 -1,-2 -2,-3 0,-1 -1,-2 -2,-2 -1,-1 -3,-1 -4,-1l-333 0c-1,0 -2,0 -3,1 -1,0 -2,1 -3,2 -1,1 -1,2 -1,3l0 0c-1,1 -1,2 -1,3l45 342c1,2 2,4 3,5 1,1 3,2 5,2z"/>
  <path id="Fill-13" class="fil1" d="M544 278c-62,0 -123,-30 -168,-53 -23,-11 -50,-25 -58,-23 -14,4 -20,40 -20,63 0,7 -5,13 -13,13 -7,0 -13,-5 -13,-13 0,-8 0,-77 39,-88 17,-5 41,7 76,25 45,22 106,52 163,50 7,0 13,5 14,13 0,7 -6,13 -13,13 -2,0 -5,0 -7,0z"/>
  <path class="fil2" d="M544 283c-63,0 -125,-31 -170,-53l-1 -1c-11,-5 -23,-11 -34,-16l0 0c-9,-4 -17,-7 -19,-6l0 0c-5,1 -8,8 -11,17 -4,12 -6,28 -6,41l0 0c0,5 -2,9 -5,13l0 0c-3,3 -8,5 -13,5l0 0c-4,0 -9,-2 -12,-5 -4,-3 -6,-8 -6,-13l0 0c0,-5 0,-37 11,-62 7,-14 16,-26 32,-31 10,-2 21,-1 34,4 13,5 28,12 46,21 22,11 48,24 75,34 28,10 57,17 85,16 5,0 9,2 13,5l0 0c3,3 5,7 6,12 0,5 -2,10 -5,13 -3,4 -8,6 -13,6l0 0 -3 0 0 0 -4 0 0 0zm-166 -62c45,22 105,52 166,52l0 0 3 0 4 0 0 0c2,0 4,-1 6,-2 1,-2 2,-4 2,-6 0,-2 -1,-4 -3,-6l0 0c-1,-1 -3,-2 -6,-2 -29,1 -59,-6 -88,-16 -28,-10 -55,-24 -77,-35 -17,-9 -32,-16 -44,-20 -12,-5 -21,-6 -28,-4 -12,3 -20,13 -26,25 -10,23 -10,53 -10,58l0 0c0,2 1,4 3,6 1,1 3,2 5,2l0 0c2,0 4,-1 6,-2l0 0c1,-2 2,-4 2,-6l0 0c0,-13 2,-31 6,-45 4,-11 10,-20 18,-23l0 0c5,-1 15,2 26,7l0 0c11,5 24,11 35,17l0 0z"/>
  <g>
   <path id="Fill-17" class="fil1" d="M418 217c46,20 97,30 121,33 3,-35 -4,-49 -9,-55 -4,-3 -8,-5 -14,-5 -4,0 -9,1 -14,3 -17,7 -56,17 -84,24l0 0zm133 61c-1,0 -1,0 -2,0 -4,0 -105,-11 -175,-54 -4,-3 -7,-8 -6,-13 1,-5 5,-9 10,-11 1,0 89,-21 114,-31 22,-9 44,-6 57,9 15,17 20,46 15,89 -1,6 -7,11 -13,11z"/>
  </g>
  <path class="fil2" d="M433 219c19,7 38,12 55,16 18,5 35,8 46,10 1,-12 0,-21 -1,-28l0 0c-2,-10 -5,-16 -7,-18 -1,-2 -3,-3 -4,-3l0 0c-2,-1 -4,-1 -6,-1 -2,0 -4,0 -6,0l0 0c-2,1 -4,2 -6,3 -8,3 -19,6 -32,10 -12,3 -26,7 -39,11zm53 26c-22,-5 -47,-13 -70,-23l2 -5 -2 -4c17,-5 37,-10 53,-15 13,-3 24,-7 31,-10 3,-1 5,-2 8,-2 3,-1 6,-1 8,-1 4,0 7,0 10,1l0 1c3,1 5,3 7,5 4,4 8,11 10,24 1,8 2,20 1,35l0 5 -6 -1c-11,-1 -30,-5 -52,-10l0 0zm64 38l-1 0 0 0c-2,0 -29,-3 -64,-11 -35,-8 -78,-22 -113,-44l0 0c-4,-1 -6,-4 -7,-7 -2,-3 -2,-7 -2,-11l0 0c1,-3 2,-7 5,-9l0 0c2,-3 5,-5 9,-5l0 0c0,-1 40,-10 73,-19 17,-5 32,-9 40,-13 12,-5 24,-6 35,-4 11,1 20,7 28,15 8,9 13,21 16,37 2,15 2,33 0,55 -1,5 -3,9 -6,12l0 0c-4,2 -8,4 -12,4l-1 0zm0 -10l1 0 0 0c2,0 4,-1 5,-2l0 0c1,-1 2,-3 3,-5l0 0c2,-21 2,-38 0,-53 -2,-13 -7,-24 -14,-32 -6,-6 -13,-10 -22,-12 -9,-1 -19,0 -29,5 -9,3 -24,8 -41,13 -34,9 -73,18 -74,18l0 0c-2,1 -3,2 -4,3l0 0c-1,1 -2,2 -2,4l0 0c0,1 0,3 1,4 0,2 1,3 3,4l0 0c34,21 76,34 111,42 33,8 59,11 62,11z"/>
  <g>
   <path id="Fill-28" class="fil1" d="M423 424c-29,0 -52,24 -52,53 0,29 23,53 52,53 29,0 53,-24 53,-53 0,-29 -24,-53 -53,-53l0 0zm0 132c-43,0 -78,-36 -78,-79 0,-43 35,-79 78,-79 43,0 79,36 79,79 0,43 -36,79 -79,79z"/>
  </g>
  <path class="fil2" d="M423 429c-13,0 -25,6 -34,14 -8,9 -13,21 -13,34 0,13 5,25 13,34 9,8 21,14 34,14 13,0 25,-6 34,-14 8,-9 14,-21 14,-34 0,-13 -6,-25 -14,-34 -9,-8 -21,-14 -34,-14zm-41 7c11,-10 25,-17 41,-17 16,0 30,7 41,17 10,11 17,25 17,41 0,16 -7,30 -17,41 -11,10 -25,17 -41,17 -16,0 -30,-7 -41,-17 -10,-11 -16,-25 -16,-41 0,-16 6,-30 16,-41zm41 125c-23,0 -44,-10 -59,-25 -15,-15 -24,-36 -24,-59 0,-23 9,-44 24,-59 15,-15 36,-25 59,-25 23,0 44,10 59,25 15,15 25,36 25,59 0,23 -10,44 -25,59 -15,15 -36,25 -59,25zm-52 -32c13,13 32,22 52,22 20,0 39,-9 52,-22 13,-13 22,-32 22,-52 0,-20 -9,-39 -22,-52 -13,-13 -32,-22 -52,-22 -20,0 -39,9 -52,22 -13,13 -21,32 -21,52 0,20 8,39 21,52z"/>
  <path id="Fill-25" class="fil1" d="M242 317l356 0 0 -39 -356 0 0 39zm369 26l-382 0c-7,0 -13,-6 -13,-13l0 -65c0,-7 6,-13 13,-13l382 0c7,0 13,6 13,13l0 65c0,7 -6,13 -13,13l0 0z"/>
  <path class="fil2" d="M247 312l346 0 0 -29 -346 0 0 29zm351 10l-356 0 -5 0 0 -5 0 -39 0 -5 5 0 356 0 5 0 0 5 0 39 0 5 -5 0zm13 26l-382 0c-5,0 -10,-2 -13,-5l0 0c-3,-4 -5,-8 -5,-13l0 -65c0,-5 2,-9 5,-13l0 0c3,-3 8,-5 13,-5l382 0c5,0 9,2 12,5l0 0c4,4 6,8 6,13l0 65c0,5 -2,9 -6,13l0 0c-3,3 -7,5 -12,5zm-382 -10l382 0c2,0 4,-1 5,-2l0 0c2,-2 3,-4 3,-6l0 -65c0,-2 -1,-4 -3,-6l0 0c-1,-1 -3,-2 -5,-2l-382 0c-2,0 -4,1 -6,2l0 0c-1,2 -2,4 -2,6l0 65c0,2 1,4 2,6l0 0c2,1 4,2 6,2z"/>
 </g>
</svg>
