<?xml version="1.0" encoding="UTF-8"?>
<!DOCTYPE svg PUBLIC "-//W3C//DTD SVG 1.1//EN" "http://www.w3.org/Graphics/SVG/1.1/DTD/svg11.dtd">
<!-- Creator: CorelDRAW X7 -->
<svg xmlns="http://www.w3.org/2000/svg" xml:space="preserve" width="8.4666mm" height="8.4666mm" version="1.1" style="shape-rendering:geometricPrecision; text-rendering:geometricPrecision; image-rendering:optimizeQuality; fill-rule:evenodd; clip-rule:evenodd"
viewBox="0 0 847 847"
 xmlns:xlink="http://www.w3.org/1999/xlink">
 <defs>
  <style type="text/css">
   <![CDATA[
    .fil0 {fill:#FEFEFE}
    .fil1 {fill:#704232;fill-rule:nonzero}
   ]]>
  </style>
 </defs>
 <g id="Layer_x0020_1">
  <metadata id="CorelCorpID_0Corel-Layer"/>
  <path class="fil0" d="M840 424c0,-230 -187,-417 -417,-417 -230,0 -417,187 -417,417 0,231 187,417 417,417 230,0 417,-186 417,-417z"/>
  <path class="fil1" d="M423 715c-80,0 -153,-33 -205,-85 -53,-53 -85,-126 -85,-206 0,-80 32,-152 85,-205 52,-53 125,-85 205,-85 80,0 153,32 205,85 53,53 85,125 85,205 0,80 -32,153 -85,206 -52,52 -125,85 -205,85zm0 -552c-72,0 -137,29 -185,77 -47,47 -76,112 -76,184 0,72 29,138 76,185 48,47 113,77 185,77 72,0 137,-30 185,-77 47,-47 76,-113 76,-185 0,-72 -29,-137 -76,-184 -48,-48 -113,-77 -185,-77zm0 353c-25,0 -48,-10 -65,-27 -17,-16 -27,-39 -27,-65 0,-25 10,-48 27,-65 17,-16 40,-27 65,-27 25,0 48,11 65,27l0 0 0 0c17,17 27,40 27,65 0,26 -10,49 -27,65 -17,17 -40,27 -65,27zm0 -155c-17,0 -33,7 -44,19l0 0c-12,11 -19,27 -19,44 0,18 7,33 19,45l0 0c11,11 27,18 44,18 17,0 33,-7 45,-18l0 0c11,-12 18,-27 18,-45 0,-17 -7,-33 -18,-44 -12,-12 -28,-19 -45,-19z"/>
  <path class="fil1" d="M698 412c-2,0 -3,0 -5,-1l0 0c-1,0 -3,-1 -4,-2l0 0c-8,-6 -18,-12 -28,-15 -9,-3 -19,-3 -27,1l0 0c-9,6 -18,9 -27,10l0 0c-9,1 -18,0 -26,-4l0 0c-10,-4 -17,-11 -23,-20 -5,-8 -8,-19 -7,-30 0,-4 0,-11 -2,-18 -1,-3 -2,-6 -4,-7 -2,-1 -4,-2 -7,-2 -3,0 -7,0 -13,2 -13,4 -26,5 -38,3 -12,-3 -22,-9 -29,-19 -9,-11 -13,-26 -13,-42 1,-15 6,-32 16,-47 4,-8 7,-17 7,-27 0,-11 -2,-23 -6,-36l0 0c-1,-2 -2,-5 -1,-7l0 0c0,-3 2,-5 3,-7l0 0c2,-2 4,-3 6,-4l0 0c3,-1 5,-1 8,-1l0 0c63,12 118,45 160,90 41,45 68,104 74,167 0,3 0,6 -1,8l-1 0c-1,3 -3,5 -5,6l0 0c-1,1 -3,1 -4,2 -1,0 -2,0 -3,0zm-50 -49c8,0 16,1 24,4 2,1 4,2 7,2 -10,-46 -33,-88 -64,-121 -32,-35 -73,-61 -120,-75 2,9 2,18 2,26 -1,13 -5,26 -11,36 -7,12 -11,23 -11,34 -1,9 1,18 5,23 4,5 8,7 14,8 6,2 14,1 23,-2 9,-3 17,-4 24,-3l0 0c8,1 15,3 21,8 7,5 12,13 14,21 4,9 4,20 4,29 -1,5 1,9 3,13 2,4 5,7 9,9 4,1 8,2 12,1 5,-1 10,-3 16,-6 4,-2 9,-4 13,-5 5,-2 10,-2 15,-2z"/>
  <path class="fil1" d="M356 706c-1,0 -2,0 -3,0l0 0c-65,-16 -120,-53 -159,-103 -39,-50 -61,-112 -61,-179l0 0 0 -2 0 0 0 -2 0 -3c0,-3 1,-7 4,-9l0 0c2,-3 5,-4 9,-5l0 0c24,-2 43,-1 58,4 16,5 27,14 33,27 6,14 9,27 12,39l0 1 0 0c6,24 10,40 51,52 18,5 35,17 49,32 14,15 25,34 31,55 6,17 7,33 5,48 -2,15 -8,29 -17,40 -2,2 -4,3 -5,4l-1 0c-1,1 -4,1 -6,1zm-194 -275c1,57 21,110 54,153 33,43 80,75 134,91 4,-6 6,-13 6,-20 1,-10 0,-22 -3,-33l0 0c-5,-17 -14,-32 -25,-44 -11,-12 -24,-21 -37,-24 -28,-8 -43,-19 -53,-32 -10,-13 -14,-27 -17,-43 -2,-5 -3,-11 -5,-16 -1,-6 -3,-11 -6,-18 -2,-6 -10,-10 -19,-12 -9,-1 -19,-2 -29,-2z"/>
  <path class="fil1" d="M228 361c-1,0 -2,0 -3,0l0 0 -1 0 -1 -1c-4,-1 -7,-4 -8,-7l0 0c-2,-3 -2,-6 -1,-9l0 -1 0 -2 16 -38 0 0c1,-3 4,-6 7,-8l0 0c3,-1 6,-1 9,0l1 0 2 0c3,2 6,5 8,8l0 0c1,3 1,6 0,9l0 0 0 2 -16 38c-1,3 -3,5 -5,7l0 0c-2,2 -5,2 -8,2z"/>
  <path class="fil1" d="M565 516c-4,0 -8,-1 -10,-4 -3,-3 -5,-6 -5,-10l0 -44c0,-4 2,-8 5,-10l0 0c2,-3 6,-4 10,-4 4,0 7,1 10,4l0 0c3,2 4,6 4,10l0 44c0,4 -1,7 -4,10 -3,3 -6,4 -10,4z"/>
  <path class="fil1" d="M474 605c-2,0 -4,0 -6,-1l-41 -19 0 0 0 0c-3,-1 -6,-4 -7,-8 -1,-3 -1,-7 0,-11l0 0c2,-4 5,-6 8,-8 4,-1 8,-1 11,1l41 18 0 0 0 0c3,2 6,5 7,8l0 0c2,4 2,8 0,12 -1,2 -3,4 -5,6 -3,1 -5,2 -8,2z"/>
  <path class="fil1" d="M327 328c-3,0 -5,-1 -8,-2 -2,-2 -4,-3 -5,-6 -2,-3 -2,-7 -1,-11 1,-3 3,-6 6,-8l0 0 22 -13 0 0 1 -1c4,-2 8,-2 11,-1 3,1 6,3 8,5l2 3 0 2c1,2 1,5 0,8l0 0c-1,3 -3,7 -6,9l-3 1 0 0 -20 12 0 0c-1,0 -2,1 -4,1l0 0c-1,0 -2,1 -3,1z"/>
 </g>
</svg>
